<?xml version="1.0" encoding="UTF-8" standalone="no"?>
<svg
   xmlns:dc="http://purl.org/dc/elements/1.1/"
   xmlns:cc="http://creativecommons.org/ns#"
   xmlns:rdf="http://www.w3.org/1999/02/22-rdf-syntax-ns#"
   xmlns:svg="http://www.w3.org/2000/svg"
   xmlns="http://www.w3.org/2000/svg"
   xmlns:sodipodi="http://sodipodi.sourceforge.net/DTD/sodipodi-0.dtd"
   xmlns:inkscape="http://www.inkscape.org/namespaces/inkscape"
   version="1.1"
   x="0px"
   y="0px"
   viewBox="0 0 43.299999 57.299999"
   enable-background="new 0 0 57 65.3"
   xml:space="preserve"
   id="svg840"
   sodipodi:docname="noun_merge.svg"
   width="43.299999"
   height="57.299999"
   inkscape:version="0.92.2 (5c3e80d, 2017-08-06)"><metadata
     id="metadata846"><rdf:RDF><cc:Work
         rdf:about=""><dc:format>image/svg+xml</dc:format><dc:type
           rdf:resource="http://purl.org/dc/dcmitype/StillImage" /><dc:title></dc:title></cc:Work></rdf:RDF></metadata><defs
     id="defs844" /><sodipodi:namedview
     pagecolor="#ffffff"
     bordercolor="#666666"
     borderopacity="1"
     objecttolerance="10"
     gridtolerance="10"
     guidetolerance="10"
     inkscape:pageopacity="0"
     inkscape:pageshadow="2"
     inkscape:window-width="1920"
     inkscape:window-height="1058"
     id="namedview842"
     showgrid="false"
     fit-margin-top="0"
     fit-margin-left="0"
     fit-margin-right="0"
     fit-margin-bottom="0"
     inkscape:zoom="5.3843798"
     inkscape:cx="23.380726"
     inkscape:cy="12.814833"
     inkscape:window-x="1920"
     inkscape:window-y="0"
     inkscape:window-maximized="0"
     inkscape:current-layer="svg840" /><path
     d="m 4.8,42.2 c -2.7,1.2 -4.7,4 -4.7,7.2 0,4.4 3.6,7.9 7.9,7.9 4.4,0 7.9,-3.6 7.9,-7.9 0,-3.2 -1.9,-6 -4.7,-7.2 v -13 c 4.3,3.7 10.4,6.2 17,6.4 1.2,2.8 4,4.7 7.2,4.7 4.4,0 7.9,-3.6 7.9,-7.9 0,-4.4 -3.6,-7.9 -7.9,-7.9 -3.2,0 -5.9,1.9 -7.2,4.6 C 19,28.7 11.1,22.9 11.1,16.2 v -1.1 c 2.7,-1.2 4.7,-4 4.7,-7.2 C 15.8,3.5 12.2,0 7.9,0 3.5,0 0,3.6 0,7.9 c 0,3.2 1.9,6 4.7,7.2 v 5.1 -4 M 4.2,7.9 C 4.2,5.7 6,4 8.1,4 10.3,4 12,5.8 12,7.9 12,10.1 10.2,11.8 8.1,11.8 5.9,11.8 4.2,10 4.2,7.9 Z M 12,49.4 c 0,2.2 -1.8,3.9 -3.9,3.9 -2.2,0 -3.9,-1.8 -3.9,-3.9 0,-2.2 1.8,-3.9 3.9,-3.9 2.1,0 3.9,1.7 3.9,3.9 z M 35.6,36.3 c -2.2,0 -3.9,-1.8 -3.9,-3.9 0,-2.2 1.8,-3.9 3.9,-3.9 2.2,0 3.9,1.8 3.9,3.9 0,2.1 -1.8,3.9 -3.9,3.9 z"
     id="path834"
     inkscape:connector-curvature="0" /></svg>